<svg width="24" height="24" viewBox="0 0 24 24" xmlns="http://www.w3.org/2000/svg">
<path fill-rule="evenodd" clip-rule="evenodd" d="M24 12C24 18.6274 18.6274 24 12 24C5.37258 24 0 18.6274 0 12C0 5.37258 5.37258 0 12 0C18.6274 0 24 5.37258 24 12ZM17.061 7.27896L5.49102 11.74C4.69802 12.05 4.71202 12.489 5.35502 12.693L8.31702 13.617L15.188 9.29096C15.507 9.07896 15.803 9.19896 15.561 9.41196L10.001 14.435L9.78802 17.488C10.098 17.488 10.233 17.353 10.393 17.193L11.84 15.799L14.84 18.01C15.387 18.32 15.778 18.16 15.924 17.502L17.894 8.22096L17.893 8.22196C18.067 7.40996 17.598 7.08496 17.061 7.27896Z"/>
</svg>
