<svg width="24" height="24" viewBox="0 0 24 24" fill="none" xmlns="http://www.w3.org/2000/svg">
<path fill-rule="evenodd" clip-rule="evenodd" d="M8.93242 19C8.40744 19 8 18.5896 8 18.0688C8 17.8083 8.10186 17.5716 8.28208 17.3901L13.7669 11.9921L8.28208 6.60992C8.10186 6.42841 8 6.18377 8 5.93123C8 5.41037 8.40744 5 8.93242 5C9.18315 5 9.40255 5.0947 9.57493 5.26832L15.6709 11.2661C15.8903 11.4713 16 11.7238 16 12C16 12.2762 15.8903 12.513 15.6787 12.726L9.58276 18.7317C9.40255 18.9053 9.18315 19 8.93242 19Z" fill="#1A1A1A"/>
</svg>
