<svg width="46" height="46" viewBox="0 0 46 46" fill="none" xmlns="http://www.w3.org/2000/svg">
<path d="M28.9308 22.6608L28.9308 22.6608C27.4033 21.0174 25.2413 20.0747 23 20.0747C20.7587 20.0747 18.5967 21.0174 17.0692 22.6607L17.0692 22.6607C16.8525 22.8937 16.5248 22.9885 16.217 22.9058L28.9308 22.6608ZM28.9308 22.6608C29.1476 22.8939 29.4754 22.9879 29.7829 22.9059L29.783 22.9059L36.8281 21.0181C36.9198 22.8887 35.6993 24.6399 33.8189 25.1438C33.1858 25.3133 32.5201 25.3274 31.8836 25.185L31.8835 25.1849C31.5933 25.1202 31.2899 25.2098 31.0816 25.4225C30.8735 25.6351 30.79 25.9403 30.8611 26.2293L30.8611 26.2293C31.0169 26.8622 31.0958 27.5153 31.0958 28.1705C31.0958 31.0336 29.6308 33.6263 27.1756 35.1076L27.1755 35.1077C26.9759 35.2282 26.8337 35.4247 26.7817 35.652L26.9 35.679L26.7817 35.652L25.4479 41.4797C25.3286 42.001 24.9899 42.4901 24.5385 42.8498C24.0872 43.2096 23.5348 43.4306 23 43.4306C22.4652 43.4306 21.9128 43.2096 21.4615 42.8498C21.0101 42.4901 20.6714 42.0009 20.552 41.4796L19.2183 35.6519C19.1664 35.4246 19.0242 35.2281 18.8245 35.1076L18.7524 35.227L18.8244 35.1075C16.3692 33.6262 14.9042 31.0336 14.9042 28.1704C14.9042 27.5153 14.9832 26.8622 15.1389 26.2292C15.2099 25.9403 15.1266 25.635 14.9183 25.4223C14.7548 25.2553 14.5326 25.1641 14.3041 25.1641C14.2415 25.1641 14.1787 25.171 14.1166 25.1848L14.1164 25.1849C13.4799 25.3274 12.8143 25.3133 12.1811 25.1437C10.3007 24.6398 9.08025 22.8886 9.17193 21.018L16.2168 22.9057L28.9308 22.6608ZM8.04617 19.197L8.04614 19.1971C7.84855 19.3111 7.7046 19.499 7.64559 19.7191L7.64559 19.7191C6.81994 22.8006 8.65496 25.9788 11.7363 26.8045L11.7363 26.8045C12.2328 26.9374 12.7434 27.0036 13.2543 27.002C13.2081 27.3892 13.185 27.7796 13.185 28.1705C13.185 31.5165 14.8366 34.5596 17.6217 36.3821L18.876 41.8632C19.2985 43.7091 21.1064 45.15 23 45.15C24.8936 45.15 26.7015 43.7091 27.1239 41.8631L28.3783 36.382C31.1635 34.5595 32.815 31.5164 32.815 28.1704C32.815 27.7796 32.7919 27.3892 32.7457 27.002C32.7529 27.002 32.7601 27.002 32.7672 27.002H32.7673H32.7673H32.7673H32.7673H32.7673H32.7673C33.2709 27.002 33.7743 26.9355 34.2637 26.8044L34.2257 26.6624L34.2637 26.8044C37.3451 25.9787 39.1801 22.8004 38.3544 19.719L38.2095 19.7578L38.3544 19.719C38.2954 19.4989 38.1515 19.311 37.9539 19.197C37.7563 19.0829 37.5216 19.0522 37.3016 19.1111L37.3016 19.1111L29.8222 21.1152C28.7287 20.0592 27.4067 19.2772 25.975 18.8203L26.121 17.1092C29.6765 16.9284 32.9178 15.5372 35.4406 13.3415C35.5018 13.3 35.5571 13.2509 35.6055 13.1956C37.2102 11.7586 38.5135 9.99143 39.4066 8.00124C42.6221 7.70904 45.15 5.00015 45.15 1.70968C45.15 1.23481 44.7652 0.85 44.2903 0.85C43.8155 0.85 43.4306 1.23481 43.4306 1.70968C43.4306 3.80438 42.0225 5.57606 40.1029 6.12952C40.5229 4.72866 40.7494 3.24511 40.7494 1.70968C40.7494 1.23481 40.3646 0.85 39.8898 0.85C39.4149 0.85 39.0301 1.23481 39.0301 1.70968C39.0301 5.67715 37.3346 9.2557 34.6298 11.7603C31.2423 11.5882 28.5388 8.77905 28.5388 5.34966C28.5388 4.87479 28.154 4.48998 27.6791 4.48998C27.2043 4.48998 26.8195 4.87479 26.8195 5.34966C26.8195 9.08787 29.3528 12.2426 32.7918 13.1938C30.6434 14.5946 28.0803 15.4099 25.3299 15.4099C24.8835 15.4099 24.5113 15.7516 24.4733 16.1965L24.2819 18.4403C23.8588 18.3841 23.4306 18.3554 23 18.3554C22.5694 18.3554 22.1412 18.3841 21.7181 18.4403L21.5267 16.1965C21.4887 15.7516 21.1165 15.4099 20.6701 15.4099C17.9196 15.4099 15.3566 14.5946 13.2082 13.1938C16.6472 12.2426 19.1805 9.08778 19.1805 5.34966C19.1805 4.87479 18.7957 4.48998 18.3209 4.48998C17.846 4.48998 17.4612 4.87479 17.4612 5.34966C17.4612 8.77905 14.7577 11.5882 11.3702 11.7603C8.66543 9.25571 6.96992 5.67715 6.96992 1.70968C6.96992 1.23481 6.58511 0.85 6.11025 0.85C5.63538 0.85 5.25057 1.23481 5.25057 1.70968C5.25057 3.24512 5.47705 4.72866 5.89707 6.12951C3.97751 5.57606 2.56935 3.80437 2.56935 1.70968C2.56935 1.23481 2.18455 0.85 1.70968 0.85C1.23481 0.85 0.85 1.23481 0.85 1.70968C0.85 5.00015 3.37795 7.70904 6.59342 8.00133C7.48649 9.99154 8.78981 11.7587 10.3945 13.1958C10.4429 13.251 10.4982 13.3001 10.5594 13.3416C13.0822 15.5373 16.3234 16.9285 19.879 17.1093L20.025 18.8204C18.5933 19.2773 17.2713 20.0593 16.1778 21.1153L8.69853 19.1113C8.47825 19.0521 8.24362 19.0832 8.04617 19.197Z" fill="#7B8E98" stroke="#7B8E98" stroke-width="0.3"/>
</svg>
