<svg width="46" height="46" viewBox="0 0 46 46" fill="none" xmlns="http://www.w3.org/2000/svg">
<g clip-path="url(#clip0_8520_6284)">
<path d="M42.9314 8.97809C41.9192 7.96603 40.694 7.16143 39.3668 6.63446C37.8315 2.67938 33.8443 -0.0481764 29.5796 0.00142044H29.578C22.5316 -0.116462 17.3082 7.12432 19.5486 13.7432L13.7463 19.5457C10.0079 18.3452 5.87837 19.3274 3.07975 22.1259C-2.27105 27.4133 -0.354117 36.6217 6.64416 39.3572C7.17095 40.684 7.97555 41.9092 8.98788 42.9217C11.0404 44.9741 13.7356 46.0002 16.4317 46C19.1272 45.9997 21.8235 44.9736 23.8756 42.9217C26.6743 40.1229 27.6562 35.9935 26.4558 32.2549L32.2581 26.4524C33.311 26.7934 34.3953 26.9598 35.4734 26.9597C38.2152 26.9596 40.9138 25.8831 42.9313 23.8655C44.9097 21.8871 45.9994 19.244 45.9998 16.423C46.0004 13.6014 44.9106 10.9573 42.9314 8.97809V8.97809ZM41.6607 22.5949C39.2118 25.0439 35.5567 25.8225 32.3488 24.5783C32.0169 24.4496 31.6403 24.5289 31.3885 24.7806L24.7852 31.3842C24.5342 31.6351 24.4545 32.0103 24.5818 32.3417C25.818 35.5597 25.0421 39.2137 22.6049 41.6509C18.1766 46.1878 10.2061 44.3666 8.19065 38.3625C8.10035 38.1041 7.8972 37.901 7.63879 37.8107C6.39402 37.3756 5.28761 36.6799 4.35031 35.7427C-2.19962 28.9081 4.78527 18.2234 13.6594 21.4195C13.9908 21.5468 14.3661 21.4672 14.6169 21.2161L21.2202 14.6125C21.4719 14.3609 21.5513 13.9842 21.4226 13.6523C18.1544 4.85724 29.014 -2.22532 35.7525 4.3407C36.6761 5.26435 37.3912 6.40148 37.8205 7.62918C37.9108 7.8875 38.1139 8.09047 38.3721 8.18077C44.4043 10.2521 46.1802 18.113 41.6607 22.5949V22.5949Z" fill="#7B8E98"/>
<path d="M40.3842 11.5198C39.5695 10.7052 38.5577 10.1021 37.4582 9.77587C37.3896 9.75548 37.3229 9.73643 37.2579 9.71774C36.5146 9.50345 36.4926 9.48153 36.2783 8.73829C36.2596 8.67333 36.2405 8.60657 36.2202 8.53793C35.894 7.43844 35.2909 6.42665 34.4761 5.61198C33.1704 4.30593 31.4218 3.58957 29.5569 3.5955C27.7013 3.60107 25.9662 4.31726 24.6715 5.61198C23.3921 6.89126 22.6667 8.57809 22.6288 10.3616C22.5973 11.8422 23.0396 13.2776 23.8866 14.4828L14.487 23.883C11.7696 21.9798 8.02203 22.262 5.61649 24.6673C2.92694 27.248 2.92703 31.8912 5.61649 34.4718C6.43161 35.2868 7.4434 35.89 8.5428 36.2159C8.61108 36.2362 8.67748 36.2552 8.74208 36.2737C9.11703 36.3812 9.30292 36.4385 9.43033 36.5659C9.55774 36.6933 9.61506 36.8792 9.72261 37.2541C9.74112 37.3188 9.76017 37.3852 9.78047 37.4536C11.2497 42.4613 17.6542 44.0909 21.3291 40.3798C23.7346 37.9744 24.0167 34.2268 22.1134 31.5094L31.5133 22.1091C32.7187 22.9561 34.1545 23.4 35.6346 23.367C37.4181 23.3292 39.105 22.6038 40.3842 21.3245C41.6791 20.0298 42.3952 18.2948 42.4008 16.439C42.4064 14.5728 41.6903 12.8259 40.3842 11.5198V11.5198ZM39.1136 20.0537C37.1474 22.0196 34.1092 22.0998 32.0463 20.2397C31.691 19.9195 31.1474 19.9334 30.8093 20.2717L20.2765 30.8049C19.9384 31.143 19.9244 31.6868 20.2446 32.042C22.0742 34.071 21.9925 37.1752 20.0585 39.109C17.3603 41.8541 12.5664 40.6353 11.5034 36.9427C11.4847 36.8797 11.4672 36.8184 11.4501 36.7588C11.3089 36.2662 11.1629 35.7569 10.7012 35.2952C10.2394 34.8335 9.72998 34.6875 9.23733 34.5463C9.17767 34.5292 9.11649 34.5116 9.05359 34.493C8.24046 34.2518 7.49129 33.8051 6.88723 33.201C4.89482 31.2893 4.89482 27.8497 6.88723 25.938C8.82106 24.0042 11.9254 23.9223 13.9544 25.7519C14.3096 26.072 14.8533 26.0581 15.1915 25.7199L25.7243 15.1867C26.0624 14.8486 26.0765 14.3048 25.7562 13.9496C23.8962 11.8869 23.9762 8.84872 25.9424 6.88263C26.8991 5.92583 28.1849 5.39662 29.5626 5.39248C31.8084 5.35277 33.8832 6.9068 34.4975 9.04908C34.5163 9.11243 34.5339 9.17397 34.5511 9.23381C34.6923 9.7261 34.8383 10.2351 35.2998 10.6966C35.7612 11.1579 36.2703 11.3039 36.7626 11.4452C36.8225 11.4623 36.884 11.48 36.9472 11.4987C37.7607 11.7402 38.5099 12.1869 39.1137 12.7907C40.0788 13.7558 40.6081 15.0496 40.6039 16.4336C40.5996 17.8112 40.0704 19.0969 39.1136 20.0537V20.0537Z" fill="#7B8E98"/>
<path d="M29.9295 9.00736L29.929 9.00691C29.5782 8.65605 29.0095 8.65632 28.6585 9.00718C28.0914 9.56577 28.5083 10.5499 29.2941 10.5413C30.08 10.5498 30.4968 9.56586 29.9295 9.00736V9.00736Z" fill="#7B8E98"/>
<path d="M37.0435 14.5978C36.6927 14.2469 36.124 14.2471 35.773 14.598C35.2059 15.1567 35.6228 16.1407 36.4086 16.1321C37.1944 16.1407 37.6113 15.1567 37.044 14.5983L37.0435 14.5978Z" fill="#7B8E98"/>
<path d="M30.9815 15.3947L30.981 15.3943C30.067 14.6276 28.9227 15.8883 29.7727 16.7244C30.1389 17.0575 30.7073 17.0319 31.0419 16.6639C31.3757 16.2967 31.3486 15.7284 30.9815 15.3947Z" fill="#7B8E98"/>
<path d="M24.2432 19.5881L24.2427 19.5876C23.3288 18.8209 22.1845 20.0817 23.0344 20.9178C23.4006 21.2509 23.969 21.2253 24.3036 20.8573C24.6375 20.4901 24.6104 19.9218 24.2432 19.5881Z" fill="#7B8E98"/>
<path d="M21.952 25.5567C21.6182 25.1895 21.0502 25.1627 20.6829 25.4965C20.3157 25.8302 20.2889 26.3987 20.6227 26.7658C20.9573 27.1338 21.5258 27.1594 21.892 26.8263C22.2592 26.4925 22.2862 25.9242 21.9524 25.5571L21.952 25.5567Z" fill="#7B8E98"/>
<path d="M14.5906 28.2285L14.5901 28.228C13.6762 27.4612 12.5319 28.7222 13.3818 29.5581C13.748 29.8912 14.3165 29.8657 14.6511 29.4977C14.9848 29.1306 14.9578 28.5623 14.5906 28.2285Z" fill="#7B8E98"/>
<path d="M16.6546 34.7377C16.3037 34.3868 15.7351 34.387 15.3841 34.7378C14.817 35.2965 15.2339 36.2806 16.0197 36.2719C16.8055 36.2806 17.2224 35.2965 16.6551 34.7381L16.6546 34.7377Z" fill="#7B8E98"/>
<path d="M9.2818 29.1468C8.93094 28.796 8.36228 28.7962 8.01133 29.1471C7.4442 29.7057 7.8611 30.6898 8.64692 30.6812C9.43275 30.6898 9.84956 29.7059 9.28225 29.1474L9.2818 29.1468Z" fill="#7B8E98"/>
</g>
<defs>
<clipPath id="clip0_8520_6284">
<rect width="46" height="46" fill="white"/>
</clipPath>
</defs>
</svg>
