<svg width="46" height="46" viewBox="0 0 46 46" fill="none" xmlns="http://www.w3.org/2000/svg">
<path d="M43.3047 7.79688H17.9952C17.6244 6.75109 16.6251 6 15.4538 6H10.0632C8.89193 6 7.89268 6.75109 7.5219 7.79688H2.69531C1.20912 7.79688 0 9.00599 0 10.4922V19.4766C0 20.9628 1.20912 22.1719 2.69531 22.1719H7.5219C7.89268 23.2177 8.89193 23.9688 10.0632 23.9688H15.4538C16.6251 23.9688 17.6244 23.2177 17.9952 22.1719H22.1016V32.0463L18.7293 32.95C17.7376 31.6297 16.0125 31.0052 14.3714 31.4448C12.1795 32.0321 10.874 34.2932 11.4613 36.4853C11.6384 37.1461 11.9797 37.7565 12.4484 38.2507C12.4753 38.279 12.5017 38.3064 12.5273 38.3329C12.5701 38.3772 12.6252 38.4344 12.6558 38.4709C12.6476 38.5178 12.6284 38.5946 12.6135 38.6542C12.6045 38.6902 12.5954 38.7272 12.5862 38.7654C12.4274 39.4273 12.4371 40.1267 12.6142 40.7878C13.1063 42.6243 14.7734 43.8386 16.5904 43.8386C16.9419 43.8385 17.2992 43.793 17.6546 43.6979C19.2959 43.258 20.4774 41.8546 20.676 40.2154L27.2704 38.4486C28.2595 39.7695 29.9852 40.3942 31.6303 39.953C33.8222 39.3656 35.1277 37.1045 34.5403 34.9125C34.3632 34.2516 34.0219 33.6412 33.5535 33.1473C33.5265 33.1189 33.4999 33.0914 33.4741 33.0646C33.4314 33.0204 33.3764 32.9635 33.3458 32.927C33.354 32.8802 33.3732 32.8034 33.388 32.7439C33.397 32.7078 33.4062 32.6708 33.4155 32.6325C34.1588 29.6424 31.319 26.8763 28.3471 27.7C26.7017 28.1409 25.5197 29.5444 25.3235 31.183L23.8984 31.5649V22.1719H43.3047C44.7909 22.1719 46 20.9628 46 19.4766V10.4922C46 9.00599 44.7909 7.79688 43.3047 7.79688ZM26.433 32.746C26.8475 32.635 27.1255 32.2463 27.097 31.8183C27.0226 30.706 27.7279 29.7263 28.8123 29.4356C30.026 29.1106 31.3265 29.8611 31.652 31.0751C31.7532 31.4532 31.7587 31.8362 31.6683 32.2134L31.6448 32.309C31.5732 32.596 31.484 32.9531 31.6022 33.3941C31.7203 33.8351 31.9761 34.1 32.1816 34.3129L32.2499 34.384C32.513 34.6614 32.7049 35.005 32.8048 35.3777C33.1302 36.5918 32.3793 37.8921 31.1653 38.2174C30.0809 38.5081 28.9802 38.0123 28.4885 37.0118C28.2993 36.6268 27.8641 36.4289 27.4497 36.5403L19.5681 38.6521C19.1546 38.7629 18.8766 39.1502 18.9041 39.5775C18.9746 40.6742 18.2535 41.6771 17.1896 41.9623C15.9552 42.293 14.6809 41.5577 14.35 40.3228C14.2501 39.9501 14.2445 39.5565 14.3337 39.1847L14.3572 39.0893C14.4288 38.8021 14.518 38.4447 14.3997 38.0036C14.2815 37.5624 14.0255 37.2975 13.8199 37.0846L13.7522 37.014C13.4852 36.7326 13.2985 36.3983 13.1971 36.0202C12.8663 34.7852 13.6017 33.5113 14.8367 33.1805C15.9005 32.8951 17.0265 33.4034 17.5139 34.3884C17.7038 34.7723 18.1377 34.9689 18.5517 34.8579L26.433 32.746ZM17.9952 20.375C17.6244 19.3292 16.6251 18.5781 15.4538 18.5781H13.657V15.8828H17.2507C18.4428 15.8354 18.4419 14.133 17.2507 14.0859H13.657V11.3906H15.4538C16.6251 11.3906 17.6244 10.6395 17.9952 9.59375H35.5904L40.3459 14.3492C40.6915 14.6801 40.6915 15.2888 40.3459 15.6197L35.5904 20.3751L17.9952 20.375ZM1.79688 19.4766V10.4922C1.79688 9.99679 2.19991 9.59375 2.69531 9.59375H7.36791V20.375H2.69531C2.19991 20.375 1.79688 19.972 1.79688 19.4766ZM15.4538 22.1719H10.0632C9.56782 22.1719 9.16478 21.7688 9.16478 21.2734V8.69531C9.16478 8.19991 9.56782 7.79688 10.0632 7.79688H15.4538C16.6461 7.84638 16.6451 9.5447 15.4538 9.59375H12.7585C12.2623 9.59375 11.8601 9.99607 11.8601 10.4922V14.0859C10.668 14.1334 10.6689 15.8357 11.8601 15.8828V19.4766C11.8601 19.9727 12.2623 20.375 12.7585 20.375H15.4538C16.646 20.4245 16.6451 22.1228 15.4538 22.1719ZM44.2031 19.4766C44.2031 19.972 43.8001 20.375 43.3047 20.375H38.1317L41.6164 16.8902C42.6592 15.8904 42.6592 14.0783 41.6164 13.0785L38.1317 9.59375H43.3047C43.8001 9.59375 44.2031 9.99679 44.2031 10.4922V19.4766Z" fill="#7B8E98"/>
</svg>
