<svg width="46" height="46" viewBox="0 0 46 46" fill="none" xmlns="http://www.w3.org/2000/svg">
<g clip-path="url(#clip0_8520_6262)">
<path d="M14.2517 17.6973C12.0213 17.6973 10.2067 19.5119 10.2067 21.7423C10.4289 27.1085 18.0753 27.1069 18.2967 21.7423C18.2967 19.5119 16.4821 17.6973 14.2517 17.6973ZM14.2517 23.9895C13.0125 23.9895 12.0044 22.9814 12.0044 21.7423C12.1279 18.761 16.3759 18.7619 16.4989 21.7423C16.4989 22.9814 15.4909 23.9895 14.2517 23.9895Z" fill="#7B8E98"/>
<path d="M41.5288 35.2256H38.1861C44.9437 26.9583 40.24 14.1882 29.8599 12.1469V10.7758C32.3382 10.7758 34.3544 8.75954 34.3544 6.28131C34.3704 2.60395 30.0846 0.468913 27.1632 2.6862C24.2408 0.468734 19.9561 2.60431 19.9721 6.28131C19.9721 8.75954 21.9883 10.7757 24.4666 10.7757V12.0731C22.0811 12.4938 19.8312 13.5123 17.9317 15.0477C15.6673 13.7292 12.4308 13.8145 10.2446 15.239C3.60122 13.5199 -1.45206 21.189 2.73604 26.6112C0.988957 28.9903 0 31.893 0 34.926C0 38.0651 2.55383 40.6189 5.69293 40.6189H26.9667C30.6059 40.6189 33.9338 39.2602 36.4697 37.0234H41.5288C45.1071 37.1719 45.1044 42.2696 41.5288 42.4167H26.9667C25.774 42.4642 25.7749 44.1675 26.9667 44.2145H41.5288C47.4927 43.9669 47.4881 35.471 41.5288 35.2256ZM25.9161 9.05303C25.6965 8.88269 25.4103 8.82372 25.1414 8.89294C23.4701 9.34553 21.7458 8.01688 21.7699 6.28131C21.7695 3.81179 24.8594 2.64584 26.4893 4.49818C26.8277 4.89981 27.4987 4.89981 27.8371 4.49818C29.4675 2.64593 32.5569 3.81179 32.5565 6.2814C32.5806 8.0167 30.8562 9.34598 29.185 8.89303C28.916 8.8239 28.6299 8.88287 28.4103 9.05312C28.1906 9.22337 28.062 9.48567 28.062 9.76351V11.8959C27.4697 11.8508 26.8608 11.8424 26.2643 11.8717V9.76342C26.2644 9.48558 26.1358 9.22328 25.9161 9.05303V9.05303ZM3.0155 22.1918C3.01478 19.2105 5.44915 16.7858 8.4305 16.7986C7.04037 18.3964 6.33501 20.7456 6.70643 22.9439C5.67711 23.5808 4.74586 24.3388 3.92742 25.193C3.33542 24.3095 3.0155 23.2672 3.0155 22.1918V22.1918ZM5.69293 38.8212C3.54513 38.8212 1.79778 37.0738 1.79778 34.926C1.79778 30.843 3.8547 27.0298 7.22725 24.7478C7.34644 25.0266 7.48235 25.2988 7.63471 25.5626C7.88289 25.9925 8.43256 26.1397 8.86259 25.8916C9.29253 25.6434 9.43986 25.0936 9.19159 24.6637C6.93448 20.8348 9.80391 15.8617 14.2517 15.8995C19.4182 15.8876 22.0497 22.2375 18.3831 25.8738C17.5728 26.7495 18.7797 27.955 19.6544 27.145C22.7314 24.187 22.5637 18.9194 19.4482 16.1458C27.6397 9.97152 39.5969 15.9646 39.5511 26.2368C39.5511 33.1758 33.9057 38.8212 26.9667 38.8212H5.69293Z" fill="#7B8E98"/>
<path d="M6.06185 30.1814H6.06122C5.56476 30.1814 5.1626 30.5838 5.1626 31.0803C5.21006 32.2725 6.91354 32.2725 6.96073 31.0803C6.96073 30.5838 6.55821 30.1814 6.06185 30.1814Z" fill="#7B8E98"/>
<path d="M29.86 7.1801C31.0527 7.13264 31.0518 5.42934 29.86 5.38232H29.8594C28.6668 5.42997 28.6683 7.13318 29.86 7.1801Z" fill="#7B8E98"/>
<path d="M24.4669 5.38232H24.4662C23.9698 5.38232 23.5676 5.78476 23.5676 6.28121C23.6151 7.47341 25.3186 7.47341 25.3658 6.28121C25.3658 5.78476 24.9633 5.38232 24.4669 5.38232Z" fill="#7B8E98"/>
</g>
<defs>
<clipPath id="clip0_8520_6262">
<rect width="46" height="46" fill="white"/>
</clipPath>
</defs>
</svg>
