<svg width="46" height="46" viewBox="0 0 46 46" fill="none" xmlns="http://www.w3.org/2000/svg">
<g clip-path="url(#clip0_8520_6297)">
<path d="M31.5004 36.4167C29.5875 36.4167 28.0734 35.2322 27.6555 33.5417H18.3444C17.9285 35.2322 16.4124 36.4167 14.4995 36.4167C12.3184 36.4167 10.5416 34.5805 10.5416 32.3227C10.5416 31.3548 10.8713 30.4348 11.452 29.7083C10.8713 28.9819 10.5416 28.0619 10.5416 27.094C10.5416 24.8362 12.3184 23 14.4995 23C16.4124 23 17.9265 24.1845 18.3444 25.875H27.6536C28.0715 24.1845 29.5856 23 31.4985 23C33.6815 23 35.4564 24.8362 35.4564 27.094C35.4564 28.0619 35.1267 28.9819 34.546 29.7083C35.1267 30.4348 35.4564 31.3548 35.4564 32.3227C35.4583 34.5805 33.6815 36.4167 31.5004 36.4167ZM17.501 31.625H28.4989C29.0279 31.625 29.4572 32.0543 29.4572 32.5833C29.4572 33.9001 30.5171 34.5 31.4985 34.5C32.6255 34.5 33.5397 33.5225 33.5397 32.3227C33.5397 31.5828 33.1909 30.9005 32.6101 30.4942C32.3533 30.3159 32.1999 30.0208 32.1999 29.7083C32.1999 29.3959 32.3533 29.1008 32.6101 28.9225C33.1928 28.5181 33.5397 27.8338 33.5397 27.094C33.5416 25.8942 32.6254 24.9167 31.5004 24.9167C30.5171 24.9167 29.4591 25.5166 29.4591 26.8333C29.4591 27.3623 29.0298 27.7917 28.5008 27.7917H17.501C16.972 27.7917 16.5427 27.3623 16.5427 26.8333C16.5427 25.5166 15.4828 24.9167 14.5015 24.9167C13.3745 24.9167 12.4583 25.8942 12.4583 27.094C12.4583 27.8338 12.8071 28.5162 13.3879 28.9225C13.6447 29.1008 13.798 29.3959 13.798 29.7083C13.798 30.0208 13.6447 30.3159 13.3879 30.4942C12.8071 30.9005 12.4583 31.5828 12.4583 32.3227C12.4583 33.5225 13.3745 34.5 14.4995 34.5C15.4828 34.5 16.5408 33.9001 16.5408 32.5833C16.5427 32.0543 16.9701 31.625 17.501 31.625V31.625Z" fill="#7B8E98"/>
<path d="M39.2917 46H6.70837C5.12329 46 3.83337 44.7101 3.83337 43.125V22.0417C3.83337 21.9573 3.84487 21.8711 3.86787 21.7906L9.23071 2.11792C9.57379 0.870167 10.7142 0 12.006 0H33.996C35.2878 0 36.4282 0.870167 36.7694 2.11792L42.1341 21.7906C42.1552 21.8711 42.1667 21.9573 42.1667 22.0417V43.125C42.1667 44.7101 40.8768 46 39.2917 46ZM5.75004 22.1701V43.125C5.75004 43.654 6.18129 44.0833 6.70837 44.0833H39.2917C39.8188 44.0833 40.25 43.654 40.25 43.125V22.1701L34.9198 2.622C34.8048 2.208 34.4253 1.91667 33.994 1.91667H12.006C11.5748 1.91667 11.1953 2.208 11.0803 2.62392L5.75004 22.1701Z" fill="#7B8E98"/>
<path d="M28.75 11.4999H17.25C15.1359 11.4999 13.4166 9.78067 13.4166 7.66658C13.4166 5.5525 15.1359 3.83325 17.25 3.83325H28.75C30.8641 3.83325 32.5833 5.5525 32.5833 7.66658C32.5833 9.78067 30.8641 11.4999 28.75 11.4999ZM17.25 5.74992C16.192 5.74992 15.3333 6.6105 15.3333 7.66658C15.3333 8.72267 16.192 9.58325 17.25 9.58325H28.75C29.808 9.58325 30.6666 8.72267 30.6666 7.66658C30.6666 6.6105 29.808 5.74992 28.75 5.74992H17.25Z" fill="#7B8E98"/>
</g>
<defs>
<clipPath id="clip0_8520_6297">
<rect width="46" height="46" fill="white"/>
</clipPath>
</defs>
</svg>
