<svg width="46" height="46" viewBox="0 0 46 46" fill="none" xmlns="http://www.w3.org/2000/svg">
<g clip-path="url(#clip0_8520_6270)">
<path d="M30.4094 20.2742C30.3739 20.2637 30.3395 20.2537 30.306 20.2442C30.2609 20.2312 30.205 20.2152 30.1646 20.2018C30.1513 20.1615 30.1352 20.1055 30.1223 20.0605C30.1128 20.027 30.1028 19.9925 30.0923 19.9569C29.9078 19.3349 29.5667 18.7626 29.1058 18.3016C27.577 16.7728 25.0895 16.7728 23.5608 18.3016C22.2929 19.5696 22.0681 21.4969 22.915 22.9974L18.6451 27.2673C17.1445 26.4204 15.2173 26.6452 13.9494 27.9132C12.4283 29.3726 12.4283 31.9987 13.9494 33.4581C14.4104 33.9192 14.9828 34.2603 15.6045 34.4445C15.64 34.455 15.6746 34.4651 15.7083 34.4747C15.7533 34.4876 15.8093 34.5036 15.8496 34.5169C15.8629 34.5573 15.8789 34.6132 15.8918 34.6579C15.9015 34.6917 15.9113 34.7263 15.9219 34.7618C16.7518 37.5927 20.3723 38.5119 22.4533 36.4172C23.7213 35.1492 23.946 33.2219 23.0991 31.7215L27.3691 27.4515C28.8694 28.2986 30.7968 28.0735 32.0648 26.8056C32.7976 26.0728 33.203 25.0916 33.2061 24.0429C33.2093 22.988 32.8039 21.9999 32.0647 21.2605C31.6038 20.7996 31.0313 20.4586 30.4094 20.2742V20.2742ZM30.7939 25.5347C29.9809 26.3477 28.725 26.381 27.872 25.612C27.517 25.2919 26.973 25.3057 26.6348 25.6439L21.2916 30.987C20.9535 31.3253 20.9394 31.869 21.2597 32.2243C23.0255 34.3297 20.1887 37.0166 18.1793 35.1462C17.9258 34.8927 17.7461 34.5915 17.6452 34.2508L17.6195 34.1624C17.5452 33.9036 17.4436 33.5492 17.1303 33.2359C16.8172 32.9229 16.4628 32.8212 16.2041 32.747L16.1154 32.7213C15.7749 32.6204 15.4738 32.4407 15.2203 32.1872C14.3964 31.3968 14.3965 29.9745 15.2203 29.184C16.0204 28.3839 17.3039 28.3509 18.1421 29.1068C18.4972 29.427 19.0411 29.413 19.3793 29.0749L24.7225 23.7317C25.0607 23.3935 25.0748 22.8497 24.7544 22.4945C23.9854 21.6417 24.0186 20.3855 24.8316 19.5725C25.6455 18.7585 27.0209 18.7585 27.8348 19.5725C28.0883 19.8259 28.2681 20.1273 28.369 20.4677L28.3945 20.5557C28.4686 20.8146 28.5703 21.1691 28.8838 21.4828C29.1971 21.796 29.5517 21.8976 29.8106 21.9718L29.8985 21.9973C31.4179 22.4188 31.9098 24.4362 30.7939 25.5347V25.5347Z" fill="#7B8E98"/>
<g clip-path="url(#clip1_8520_6270)">
<path d="M27.2665 4.42592C25.9605 2.90226 24.7851 1.55273 23.8709 0.420874C23.8274 0.333808 23.7403 0.290275 23.6968 0.246742C23.2179 -0.145056 22.5214 -0.0579898 22.1296 0.420874C21.2154 1.55273 20.04 2.90226 18.734 4.42592C12.9877 11.0865 5.02112 20.3155 5.02112 28.0209C5.02112 32.9836 7.02364 37.4675 10.2886 40.7325C13.5536 43.954 18.0375 46 23.0003 46C27.9631 46 32.447 43.9975 35.7119 40.7325C38.9769 37.4675 40.9794 32.9836 40.9794 28.0209C40.9794 20.3155 33.0129 11.0865 27.2665 4.42592ZM34.1448 39.1218C31.2716 41.995 27.3536 43.7798 23.0003 43.7798C18.647 43.7798 14.729 41.995 11.8558 39.1653C9.02616 36.3357 7.24131 32.3742 7.24131 28.0209C7.24131 21.1426 14.9031 12.2619 20.4318 5.86251C21.346 4.77418 22.2167 3.77292 23.0003 2.81519C23.7839 3.77292 24.6545 4.77418 25.5687 5.81898C31.0974 12.2183 38.7593 21.0556 38.7593 27.9773C38.7593 32.3306 36.9744 36.2486 34.1448 39.1218Z" fill="#7B8E98"/>
</g>
</g>
<defs>
<clipPath id="clip0_8520_6270">
<rect width="46" height="46" fill="white"/>
</clipPath>
<clipPath id="clip1_8520_6270">
<rect width="46" height="46" fill="white"/>
</clipPath>
</defs>
</svg>
