<svg width="80" height="80" viewBox="0 0 80 80" fill="none" xmlns="http://www.w3.org/2000/svg">
<path fill-rule="evenodd" clip-rule="evenodd" d="M40.0003 6.66675C58.4098 6.66675 73.3337 21.5906 73.3337 40.0001C73.3337 58.4096 58.4098 73.3334 40.0003 73.3334C21.5908 73.3334 6.66699 58.4096 6.66699 40.0001C6.66699 21.5906 21.5908 6.66675 40.0003 6.66675ZM40.0002 12.3333C24.7203 12.3333 12.3336 24.7201 12.3336 40C12.3336 55.2799 24.7203 67.6667 40.0002 67.6667C55.2801 67.6667 67.6669 55.2799 67.6669 40C67.6669 24.7201 55.2801 12.3333 40.0002 12.3333ZM46.7868 33.3335C45.46 33.3335 44.3844 34.4438 44.3844 35.8134C44.3844 42.5442 49.6906 45.7329 57.5976 45.7329C58.9244 45.7329 60 44.6227 60 43.253C60 41.8834 58.9244 40.7732 57.5976 40.7732C51.9943 40.7732 49.1892 39.0874 49.1892 35.8134C49.1892 34.4438 48.1136 33.3335 46.7868 33.3335ZM35.6156 35.8134C35.6156 34.4438 34.54 33.3335 33.2132 33.3335C31.8864 33.3335 30.8108 34.4438 30.8108 35.8134L30.7934 36.25C30.55 39.2372 27.751 40.7732 22.4024 40.7732C21.0756 40.7732 20 41.8835 20 43.2531C20 44.6227 21.0756 45.733 22.4024 45.733C30.3095 45.733 35.6156 42.5442 35.6156 35.8134ZM51.5321 55.2229C48.4748 52.7757 44.4054 51.398 40.0964 51.398C35.676 51.398 31.5093 52.8482 28.4309 55.4105C27.356 56.3051 27.1873 57.9298 28.0539 59.0393C28.9206 60.1488 30.4945 60.323 31.5693 59.4284C33.7387 57.6227 36.7942 56.5592 40.0964 56.5592C43.3178 56.5592 46.3061 57.571 48.4681 59.3016C49.5592 60.1749 51.1296 59.9699 51.9757 58.8436C52.8218 57.7173 52.6232 56.0962 51.5321 55.2229Z" fill="#ECEFF1"/>
</svg>
