<svg width="16" height="16" viewBox="0 0 16 16" fill="none" xmlns="http://www.w3.org/2000/svg">
<path fill-rule="evenodd" clip-rule="evenodd" d="M12.9517 13.334C14.0387 13.334 14.6667 12.7304 14.6667 11.5348V5.12737C14.6667 3.93758 14.0327 3.33398 12.7706 3.33398H3.04835C1.96139 3.33398 1.33337 3.93178 1.33337 5.12737V11.5348C1.33337 12.7362 1.96743 13.334 3.22951 13.334H12.9517ZM8.01212 8.98692C7.77057 8.98692 7.53506 8.87664 7.28144 8.62708L2.72226 4.30322C2.85511 4.25099 3.01212 4.22197 3.19328 4.22197H12.8068C12.994 4.22197 13.157 4.25099 13.2899 4.31483L8.74279 8.62708C8.48313 8.87664 8.24763 8.98692 8.01212 8.98692ZM2.26333 11.6335C2.25729 11.6044 2.25729 11.5696 2.25729 11.5348V5.06933V5.06933L5.72951 8.34269L2.26333 11.6335ZM13.7428 11.6161L10.2947 8.34269L13.7428 5.08674V11.6161V11.6161ZM12.8068 12.446H3.19328C3.0242 12.446 2.87323 12.4228 2.75246 12.3705L6.36357 8.94048L6.75608 9.31193C7.17878 9.71239 7.58337 9.8807 8.01212 9.8807C8.43482 9.8807 8.84545 9.71239 9.26816 9.31193L9.66067 8.94048L13.2657 12.3647C13.1329 12.4228 12.9819 12.446 12.8068 12.446Z" fill="#7B8E98"/>
</svg>
