<svg width="24" height="24" viewBox="0 0 24 24" fill="none" xmlns="http://www.w3.org/2000/svg">
<path fill-rule="evenodd" clip-rule="evenodd" d="M12.706 12.5702C14.4944 12.1407 15.3271 14.3482 13.5339 14.805C11.7032 15.2708 10.7651 13.0354 12.706 12.5702V12.5702ZM11.8369 21.9896L11.8714 21.9611C12.0863 22.0325 12.5214 23.4433 14.0677 23.8607C16.0855 24.4058 18.4191 23.3011 19.6356 21.4161C19.9842 20.8752 21.0724 18.9393 20.1488 18.5564C19.3409 18.2218 19.0213 20.1021 18.5105 20.8673C17.9622 21.6883 17.0108 22.3247 16.0588 22.5486C12.8149 23.312 12.4682 20.5098 12.4978 18.0355C14.1155 17.5509 15.8664 15.4626 15.7599 13.6985C15.6279 11.5145 12.5837 10.8418 10.8492 11.1836C8.56276 11.6349 7.27065 13.1885 8.44656 15.5013C9.77196 18.1051 11.2111 17.5957 11.2765 18.3531C11.5125 21.0755 9.91963 24.0985 6.55408 22.087C5.74371 21.6024 5.18995 20.8891 4.78628 20.0422C4.63619 19.7276 4.40318 18.822 4.27064 18.6798C3.88997 18.2739 3.21335 18.5842 3.23513 19.2013C3.29263 20.8304 5.08101 22.917 6.54864 23.5226C8.57002 24.3574 10.8244 24.1578 11.8369 21.9902V21.9896ZM15.6776 9.56837C15.2122 8.48729 14.7619 7.41166 15.4845 6.25072C16.1502 5.18175 17.4254 5.14363 18.3683 5.87746C20.3425 7.41226 20.3401 11.2278 17.8478 11.0614C19.2138 10.6174 19.6247 9.17756 18.982 7.91681L17.5095 9.03237L17.9991 7.137C16.264 6.70626 15.637 8.0989 15.6776 9.56776V9.56837ZM16.4462 4.12789C11.9253 5.04744 14.0362 13.1232 18.4821 12.3349C22.9848 11.5363 20.9192 3.21802 16.4462 4.12789V4.12789ZM6.72778 8.87447L5.30796 7.7698C4.89098 8.20719 4.85527 9.03902 5.02957 9.59741C5.23716 10.2623 5.50163 10.4407 6.01606 10.8031C3.50566 10.5956 3.87121 7.36023 5.32188 5.86657C6.06629 5.10068 7.26459 4.80183 8.14698 5.5417C9.09534 6.33542 8.86536 7.6724 8.62328 8.70266C8.22687 8.04324 8.32613 7.21444 7.126 6.96338C5.79031 6.68449 6.38765 7.22835 6.72778 8.87447V8.87447ZM6.51293 3.85384C1.81653 4.63062 1.8365 12.8376 6.52806 12.0754C11.2075 11.3143 11.1863 3.0813 6.51293 3.85384V3.85384ZM15.0209 0.0280265C14.3467 0.136921 14.2511 0.931243 14.6838 1.21921C15.1226 1.5108 16.2319 0.89555 17.3994 2.63241C17.6862 3.05952 17.8073 3.73345 18.3949 3.66025C20.0066 3.4594 17.4472 -0.362783 15.0209 0.0280265V0.0280265ZM7.38443 0.0425457C6.3471 0.191973 5.49618 0.836263 4.89582 1.66991C3.43122 3.70805 4.89885 4.00508 5.31402 3.38923C5.88109 2.54832 6.18007 1.6197 7.36203 1.35956C7.85225 1.25188 8.74311 1.50838 8.69954 0.639649C8.66322 -0.0754229 7.90248 -0.0318653 7.38382 0.0431507L7.38443 0.0425457Z" fill="#222327"/>
</svg>
