<svg width="224" height="56" fill="none" xmlns="http://www.w3.org/2000/svg"><path fill-rule="evenodd" clip-rule="evenodd" d="M2.638 40.097c-1.84 2.74-3.016 4.195-2.527 7.88.352 2.646 1.775 5.14 4.005 6.605 2.442 1.606 5.58 1.884 8.204.532 2.83-1.46 3.606-3.115 4.726-5.93l25.944.004c1.147 2.867 1.907 4.483 4.797 5.962 5.271 2.697 11.807-1.331 12.193-7.744.096-1.592-.152-3.16-.806-4.615-.762-1.697-1.392-1.926-2.263-3.2 1.187-2.573 1.596-4.71.332-7.412-2.2-4.704-8.293-5.68-11.66-1.456-.754.945-.718 2.282-1.201 3.404-.464 1.079-1.01 1.895-1.665 2.849 5.193.828 1.806-2.361 4.901-5.38 2.209-2.153 5.282-1.755 7.207.55 2.974 3.562-.398 6.581-.368 7.76.024.97 3.614 2.446 3.53 6.988-.117 6.288-7.613 9.479-11.601 4.513-4.132-5.145 4.25-4.408-16.474-4.408H19.599c-1.113 0-3.996-.471-4.384.839-.485 1.636-.46 2.21-1.612 3.628-4.03 4.963-11.61 1.595-11.554-4.79.012-1.388.41-2.814 1.183-3.967.703-1.048 2.365-2.009 1.687-3.1-.877-1.41-1.493-1.61-1.641-3.582-.376-5.009 5.138-7.638 8.447-4.375 2.887 2.847-.463 6.235 5.061 5.322-.66-.938-1.33-1.857-1.694-2.923-.448-1.31-.582-2.257-1.46-3.358-1.615-2.024-4.255-3.062-6.802-2.488-5.343 1.205-6.96 7.36-4.192 11.892Z" fill="#222327"/><path fill-rule="evenodd" clip-rule="evenodd" d="M31.113 20.778c2.955-.71 4.331 2.939 1.368 3.694-3.025.77-4.575-2.925-1.368-3.694Zm-1.436 15.57.057-.047c.355.118 1.074 2.45 3.629 3.14 3.334.901 7.19-.925 9.2-4.041.576-.894 2.374-4.094.848-4.727-1.335-.553-1.863 2.555-2.707 3.82-.906 1.357-2.478 2.409-4.051 2.779-5.36 1.262-5.933-3.37-5.884-7.46 2.673-.801 5.566-4.253 5.39-7.169-.218-3.61-5.248-4.722-8.114-4.157-3.778.746-5.913 3.314-3.97 7.137 2.19 4.304 4.568 3.462 4.676 4.714.39 4.5-2.242 9.497-7.803 6.172-1.339-.801-2.254-1.98-2.921-3.38-.248-.52-.633-2.017-.852-2.252-.629-.671-1.747-.158-1.711.862.095 2.693 3.05 6.142 5.475 7.143 3.34 1.38 7.065 1.05 8.738-2.533ZM36.023 15.816c-.769-1.787-1.513-3.565-.319-5.484 1.1-1.767 3.207-1.83 4.765-.617 3.262 2.537 3.258 8.844-.86 8.569 2.257-.734 2.936-3.114 1.874-5.198L39.05 14.93l.809-3.133c-2.867-.712-3.903 1.59-3.836 4.018Zm1.27-8.993c-7.47 1.52-3.982 14.869 3.364 13.566 7.44-1.32 4.027-15.07-3.364-13.566ZM21.235 14.669l-2.346-1.826c-.689.723-.748 2.098-.46 3.021.343 1.099.78 1.394 1.63 1.993-4.148-.343-3.544-5.691-1.147-8.16 1.23-1.266 3.21-1.76 4.668-.537 1.567 1.312 1.187 3.522.787 5.225-.655-1.09-.491-2.46-2.474-2.875-2.207-.461-1.22.438-.658 3.159ZM20.88 6.37c-7.76 1.284-7.727 14.85.025 13.59 7.732-1.258 7.697-14.867-.025-13.59ZM34.938.046c-1.114.18-1.272 1.493-.557 1.969.725.482 2.558-.535 4.487 2.336.474.706.674 1.82 1.645 1.699 2.663-.332-1.566-6.65-5.575-6.004ZM22.32.07c-1.714.247-3.12 1.312-4.112 2.69-2.42 3.369.005 3.86.691 2.842.937-1.39 1.431-2.925 3.384-3.355.81-.178 2.282.246 2.21-1.19-.06-1.182-1.317-1.11-2.174-.986Z" fill="#222327"/><path d="M80.006 41.5c-.793 0-1.413-.228-1.86-.684-.437-.464-.656-1.112-.656-1.941V24.396c0-.829.219-1.472.657-1.927.446-.465 1.066-.698 1.859-.698h5.496c2.999 0 5.323.844 6.973 2.53 1.659 1.686 2.488 4.092 2.488 7.219 0 3.144-.834 5.596-2.502 7.355-1.659 1.75-3.979 2.625-6.959 2.625h-5.496Zm2.502-4.047h2.338c1.64 0 2.885-.497 3.732-1.49.857-.994 1.285-2.47 1.285-4.43 0-1.84-.437-3.254-1.312-4.238-.875-.985-2.11-1.477-3.705-1.477h-2.338v11.635Zm27.303 2.352c-1.359 1.367-3.218 2.05-5.579 2.05-2.36 0-4.22-.683-5.578-2.05-1.358-1.377-2.037-3.295-2.037-5.756 0-2.415.688-4.316 2.065-5.701 1.376-1.395 3.226-2.092 5.55-2.092 2.343 0 4.198.693 5.565 2.078 1.367 1.385 2.051 3.29 2.051 5.715 0 2.47-.679 4.389-2.037 5.756Zm-7.561-2.612c.483.739 1.144 1.108 1.982 1.108.839 0 1.5-.37 1.983-1.108.483-.738.724-1.782.724-3.13 0-1.331-.246-2.37-.738-3.118-.483-.756-1.139-1.134-1.969-1.134-.829 0-1.485.378-1.968 1.134-.483.748-.725 1.787-.725 3.117 0 1.35.237 2.393.711 3.131Zm18.443 9.913c-1.595-.01-2.971-.274-4.129-.794-1.157-.519-1.977-1.184-2.46-1.996a2.443 2.443 0 0 1-.315-1.216c0-.493.173-.898.52-1.217.355-.32.82-.479 1.394-.479.602 0 1.13.196 1.586.588 1.139.957 2.251 1.44 3.336 1.45.993 0 1.768-.247 2.324-.739.556-.492.834-1.162.834-2.01v-2.378h-.095c-.301.792-.857 1.435-1.668 1.927-.803.483-1.746.725-2.831.725-1.832 0-3.276-.647-4.334-1.942-1.057-1.294-1.585-3.067-1.585-5.318 0-2.324.519-4.124 1.558-5.4 1.048-1.276 2.525-1.914 4.43-1.914 1.057 0 1.978.26 2.762.779a4.42 4.42 0 0 1 1.695 2.064h.096v-.506c0-.802.223-1.408.669-1.818.456-.41 1.049-.615 1.778-.615.729 0 1.308.205 1.736.615.438.41.656 1.016.656 1.819v12.044c0 2.015-.692 3.573-2.078 4.676-1.376 1.103-3.336 1.654-5.879 1.654Zm.328-9.57c.875 0 1.559-.324 2.051-.971.502-.657.752-1.582.752-2.776 0-1.185-.25-2.124-.752-2.816-.501-.702-1.185-1.053-2.051-1.053-.865 0-1.549.346-2.05 1.039-.492.693-.739 1.636-.739 2.83 0 1.194.242 2.12.725 2.776.492.647 1.18.97 2.064.97Zm14.67 3.581c-.437.456-1.052.684-1.845.684-.793 0-1.413-.228-1.86-.684-.437-.456-.656-1.098-.656-1.927V24.397c0-.83.219-1.473.656-1.928.447-.465 1.067-.698 1.86-.698h8.941c.684 0 1.226.178 1.627.534.401.355.602.852.602 1.49 0 .629-.205 1.126-.616 1.49-.401.356-.938.533-1.613.533h-6.439v4.485h5.797c.638 0 1.143.173 1.517.52.383.337.574.806.574 1.407 0 .602-.187 1.071-.56 1.409-.374.337-.884.505-1.531.505h-5.797v5.046c0 .829-.219 1.471-.657 1.927Zm23.338-1.312c-1.358 1.367-3.217 2.05-5.578 2.05s-4.22-.683-5.578-2.05c-1.358-1.377-2.037-3.295-2.037-5.756 0-2.415.688-4.316 2.064-5.701 1.377-1.395 3.227-2.092 5.551-2.092 2.343 0 4.197.693 5.565 2.078 1.367 1.385 2.05 3.29 2.05 5.715 0 2.47-.679 4.389-2.037 5.756Zm-7.56-2.612c.483.739 1.144 1.108 1.982 1.108.839 0 1.5-.37 1.983-1.108.483-.738.724-1.782.724-3.13 0-1.331-.246-2.37-.738-3.118-.483-.756-1.139-1.134-1.969-1.134-.829 0-1.486.378-1.969 1.134-.483.748-.724 1.787-.724 3.117 0 1.35.237 2.393.711 3.131Zm24.213 2.612c-1.358 1.367-3.218 2.05-5.578 2.05-2.361 0-4.221-.683-5.579-2.05-1.358-1.377-2.037-3.295-2.037-5.756 0-2.415.688-4.316 2.065-5.701 1.376-1.395 3.226-2.092 5.551-2.092 2.342 0 4.197.693 5.564 2.078 1.367 1.385 2.051 3.29 2.051 5.715 0 2.47-.679 4.389-2.037 5.756Zm-7.561-2.612c.483.739 1.144 1.108 1.983 1.108.838 0 1.499-.37 1.982-1.108.483-.738.725-1.782.725-3.13 0-1.331-.247-2.37-.739-3.118-.483-.756-1.139-1.134-1.968-1.134-.83 0-1.486.378-1.969 1.134-.483.748-.725 1.787-.725 3.117 0 1.35.237 2.393.711 3.131Zm16.953 4.526c-1.85 0-3.304-.68-4.361-2.037-1.048-1.367-1.572-3.254-1.572-5.66 0-2.38.533-4.243 1.599-5.592 1.067-1.358 2.53-2.037 4.389-2.037 1.057 0 1.978.26 2.762.779a4.305 4.305 0 0 1 1.695 2.064h.096v-5.263c0-.82.218-1.445.656-1.873.437-.429 1.025-.643 1.764-.643.738 0 1.326.214 1.763.643.438.428.656 1.052.656 1.873v15.353c0 .811-.218 1.431-.656 1.86-.437.419-1.025.629-1.763.629-.73 0-1.317-.21-1.764-.63-.438-.428-.656-1.048-.656-1.859v-.424h-.096c-.292.83-.843 1.509-1.654 2.038-.802.519-1.755.779-2.858.779Zm-.232-4.813c.492.684 1.176 1.026 2.051 1.026.875 0 1.558-.342 2.05-1.026.502-.683.752-1.631.752-2.843 0-1.195-.25-2.138-.752-2.83-.501-.702-1.185-1.053-2.05-1.053-.866 0-1.55.346-2.051 1.039-.492.692-.738 1.64-.738 2.843 0 1.204.246 2.152.738 2.844Z" fill="#1A1A1A"/></svg>