<svg width="20" height="20" viewBox="0 0 20 20" fill="none" xmlns="http://www.w3.org/2000/svg">
<path fill-rule="evenodd" clip-rule="evenodd" d="M15.5167 20C17.4602 20 18.5193 18.9924 18.5193 17.0687V12.0712C19.4756 11.888 20 11.1552 20 10.0865V7.52163C20 6.2799 19.3111 5.49618 18.0463 5.49618H15.8663C16.4422 4.93639 16.7815 4.20356 16.7815 3.37913C16.7815 1.40458 15.1979 0 13.2134 0C11.7429 0 10.5296 0.804071 9.99486 2.23919C9.46015 0.804071 8.25707 0 6.78663 0C4.79177 0 3.21851 1.40458 3.21851 3.37913C3.21851 4.20356 3.54756 4.93639 4.12339 5.49618H1.95373C0.750643 5.49618 0 6.2799 0 7.52163V10.0865C0 11.1552 0.514139 11.888 1.47044 12.0712V17.0687C1.47044 18.9924 2.53985 20 4.48329 20H15.5167ZM9.15159 5.49566H7.55776C5.8611 5.49566 4.95622 4.50838 4.95622 3.44986C4.95622 2.35062 5.78912 1.69922 6.88938 1.69922C8.15416 1.69922 9.15159 2.66614 9.15159 4.28446V5.49566ZM12.4422 5.49566H10.8381V4.28446C10.8381 2.66614 11.8458 1.69922 13.1105 1.69922C14.2108 1.69922 15.0334 2.35062 15.0334 3.44986C15.0334 4.50838 14.108 5.49566 12.4422 5.49566ZM9.09005 10.5745H2.37539C1.86125 10.5745 1.6556 10.3608 1.6556 9.85189V7.74502C1.6556 7.23611 1.86125 7.03255 2.37539 7.03255H9.09005V10.5745ZM17.6349 10.5745H10.91V7.03255H17.6349C18.1491 7.03255 18.3444 7.23611 18.3444 7.74502V9.85189C18.3444 10.3608 18.1491 10.5745 17.6349 10.5745ZM9.08999 18.4733H4.46274C3.60927 18.4733 3.12598 17.9949 3.12598 17.1501V12.112H9.08999V18.4733ZM15.527 18.4733H10.91V12.112H16.8637V17.1501C16.8637 17.9949 16.3804 18.4733 15.527 18.4733Z" fill="#7B8E98"/>
</svg>
