<svg width="24" height="24" viewBox="0 0 24 24" xmlns="http://www.w3.org/2000/svg">
    <path fill-rule="evenodd" clip-rule="evenodd" d="M11.0532 2.15287C13.6802 1.90928 15.8794 2.60602 17.999 4.11687C18.7787 4.67269 19.6401 6.16805 20.6778 5.64041C21.2472 5.35087 21.3408 4.69973 21.0523 4.17067C20.7952 3.69897 20.3338 3.36048 19.9303 3.02114C16.05 -0.242644 10.9252 -0.992323 6.37474 1.41333C-2.70893 6.2155 -1.91 19.4723 7.65239 23.1933C11.1893 24.5696 15.2622 24.1666 18.4545 22.1237C19.0985 21.7116 20.4499 20.6784 20.8945 20.0902C21.8206 18.8651 20.5225 17.6553 19.3403 18.643C18.9226 18.9921 18.6423 19.4221 18.191 19.7653C15.663 21.6878 12.5612 22.4149 9.45804 21.5927C4.76679 20.3499 1.69 15.9672 2.10513 11.1385C2.51418 6.38089 6.28812 2.59475 11.0531 2.15295L11.0532 2.15287Z"/>
    <path fill-rule="evenodd" clip-rule="evenodd" d="M20.3858 10.9702C18.4547 10.9496 16.5183 10.9778 14.5863 10.9669C13.6309 10.9615 12.671 10.9652 11.7153 10.9665C10.9588 10.9675 9.86473 10.892 9.86037 11.9983C9.856 13.1147 10.9126 13.0528 11.6815 13.0514C12.6493 13.0498 13.6186 13.0489 14.5863 13.0515C16.5206 13.0568 18.4585 13.0371 20.3921 13.0538C19.891 13.6205 18.7513 14.5558 18.3994 15.0945C17.7433 16.0993 19.0386 17.3929 20.1226 16.3073C20.797 15.6319 21.4755 14.9614 22.1489 14.2855C22.6336 13.7991 23.975 12.7158 23.9992 12.0603C24.021 11.469 23.6051 11.1971 23.232 10.8192C22.8982 10.4811 22.5585 10.1403 22.2192 9.80831C21.5322 9.1359 20.8608 8.44494 20.1763 7.7694C18.9998 6.60824 17.8164 7.93814 18.367 8.86677C18.7001 9.42858 19.8933 10.3663 20.3858 10.9702L20.3858 10.9702Z"/>
</svg>
