<svg width="24" height="30" viewBox="0 0 24 30" fill="none" xmlns="http://www.w3.org/2000/svg">
<path d="M11.3336 14.502C11.1058 14.502 10.8871 14.4114 10.726 14.2502L8.4057 11.9299C8.07001 11.5945 8.07001 11.0502 8.4057 10.7147C8.74117 10.379 9.28544 10.379 9.62091 10.7147L11.3336 12.4272L14.45 9.31085C14.7854 8.97538 15.3297 8.97538 15.6652 9.31085C16.0009 9.64654 16.0009 10.1906 15.6652 10.5263L11.9412 14.2502C11.7801 14.4114 11.5614 14.502 11.3336 14.502Z" fill="#7B8E98"/>
<path fill-rule="evenodd" clip-rule="evenodd" d="M12.0353 4.25081C7.88346 4.25081 4.50549 7.62856 4.50549 11.7806C4.50549 15.9327 7.88346 19.3105 12.0353 19.3105C16.1874 19.3105 19.5654 15.9327 19.5654 11.7806C19.5654 7.62856 16.1874 4.25081 12.0353 4.25081ZM12.0353 17.5917C8.83124 17.5917 6.22424 14.9849 6.22424 11.7806C6.22424 8.57633 8.83124 5.96956 12.0353 5.96956C15.2396 5.96956 17.8466 8.57633 17.8466 11.7806C17.8466 14.9849 15.2396 17.5917 12.0353 17.5917Z" fill="#7B8E98"/>
<path fill-rule="evenodd" clip-rule="evenodd" d="M23.3089 13.7683C23.4291 13.0878 23.3226 12.3897 23.0162 11.7806C23.3226 11.1714 23.4289 10.4734 23.3089 9.7926C23.189 9.11204 22.8504 8.49258 22.354 8.02485C22.4337 7.34764 22.2949 6.65544 21.9492 6.05679C21.6036 5.45814 21.0734 4.99175 20.4473 4.72208C20.2904 4.05853 19.9234 3.45562 19.3939 3.01116C18.8641 2.56693 18.2066 2.31001 17.5258 2.27085C17.1514 1.70084 16.6002 1.25974 15.9505 1.02342C15.3011 0.787088 14.5952 0.770527 13.9422 0.966572C13.3955 0.559041 12.7266 0.333008 12.0353 0.333008C11.3442 0.333008 10.6752 0.559041 10.1285 0.966572C9.47548 0.770527 8.76963 0.787088 8.11995 1.02342C7.4705 1.25997 6.91929 1.70107 6.54488 2.27085C5.8641 2.31024 5.20637 2.56693 4.67687 3.01116C4.14737 3.45562 3.78034 4.05853 3.62346 4.7223C2.99706 4.99197 2.46711 5.45814 2.12135 6.05679C1.77581 6.65544 1.63706 7.34764 1.71673 8.02485C1.22035 8.49258 0.881748 9.11204 0.761794 9.7926C0.641616 10.4734 0.748142 11.1714 1.05452 11.7806C0.748142 12.3897 0.641616 13.0878 0.761794 13.7683C0.881748 14.4491 1.22035 15.0686 1.71673 15.5363C1.63706 16.2135 1.77581 16.9057 2.12135 17.5044C2.46711 18.103 2.99728 18.5692 3.62346 18.8389C3.72999 19.2898 3.93387 19.7128 4.21965 20.0769L1.70196 25.3459C1.55985 25.6431 1.60035 25.9954 1.8058 26.253C2.01147 26.5103 2.34604 26.6276 2.66741 26.5546L6.45984 25.6946L8.17322 29.1856C8.31757 29.4799 8.617 29.6663 8.94464 29.6663H8.94912C9.27854 29.6647 9.57798 29.4747 9.72009 29.1775L12.0353 24.3323L14.3506 29.1775C14.4925 29.4747 14.792 29.6645 15.1214 29.6663H15.1261C15.4535 29.6663 15.7529 29.4799 15.8975 29.1856L17.6109 25.6946L21.4031 26.5546C21.7245 26.6276 22.059 26.5103 22.2647 26.253C22.4704 25.9954 22.5107 25.6431 22.3685 25.3459L19.8508 20.0769C20.1366 19.7128 20.3405 19.2898 20.447 18.8389C21.0734 18.5692 21.6036 18.103 21.9492 17.5044C22.2947 16.9057 22.4334 16.2135 22.354 15.5363C22.8502 15.0686 23.189 14.4491 23.3089 13.7683ZM21.3266 12.3094C21.583 12.6377 21.6884 13.0607 21.6164 13.47C21.5441 13.8793 21.3001 14.2405 20.9472 14.4614C20.6129 14.6704 20.4636 15.0802 20.5853 15.4553C20.714 15.8514 20.6686 16.2849 20.4607 16.645C20.253 17.0049 19.9001 17.2611 19.4928 17.3477C19.1072 17.4298 18.8268 17.764 18.8129 18.1581C18.7981 18.5741 18.6072 18.966 18.2888 19.2332C17.9703 19.5004 17.5514 19.6206 17.1389 19.5626C16.7484 19.5076 16.3706 19.726 16.2229 20.0914C16.0669 20.4775 15.7534 20.7805 15.3626 20.9226C14.9721 21.0647 14.5373 21.0343 14.1696 20.8389C13.8211 20.6538 13.3917 20.7295 13.1278 21.0226C12.8492 21.3319 12.4508 21.5094 12.0353 21.5094C11.6197 21.5094 11.2213 21.3319 10.9427 21.0226C10.7753 20.8367 10.5414 20.7384 10.304 20.7384C10.1668 20.7384 10.0285 20.7711 9.90092 20.8389C9.53344 21.0343 9.09839 21.0647 8.70786 20.9226C8.31734 20.7805 8.0038 20.4775 7.8476 20.0914C7.69989 19.726 7.32235 19.508 6.9316 19.5626C6.51915 19.6203 6.1002 19.5004 5.78174 19.2332C5.46328 18.966 5.27239 18.5741 5.25761 18.1581C5.24374 17.764 4.96355 17.4298 4.57773 17.3477C4.17064 17.2611 3.81772 17.0049 3.60981 16.645C3.40213 16.2849 3.3567 15.8514 3.48516 15.4553C3.6069 15.0802 3.45763 14.6704 3.12328 14.4614C2.77036 14.2405 2.52642 13.8793 2.45436 13.47C2.38207 13.0607 2.4877 12.6377 2.74395 12.3094C2.98654 11.9986 2.98654 11.5626 2.74395 11.2517C2.4877 10.9234 2.38207 10.5005 2.45436 10.0911C2.52642 9.68183 2.77036 9.3204 3.12328 9.09973C3.45763 8.89071 3.6069 8.48094 3.48516 8.10586C3.3567 7.70974 3.40213 7.27625 3.60981 6.91617C3.81772 6.5563 4.17042 6.30006 4.57773 6.21345C4.96332 6.13132 5.24374 5.79719 5.25761 5.40309C5.27239 4.98705 5.46328 4.59519 5.78174 4.32797C6.09998 4.06076 6.51915 3.94081 6.9316 3.99855C7.32212 4.0536 7.69967 3.83518 7.8476 3.4695C8.0038 3.08367 8.31734 2.78066 8.70786 2.63855C9.09839 2.49621 9.53322 2.52687 9.90092 2.72224C10.2491 2.9071 10.6788 2.83146 10.9427 2.53851C11.2215 2.22922 11.6197 2.05175 12.0353 2.05175C12.4511 2.05175 12.8492 2.22922 13.1278 2.53851C13.3919 2.83146 13.8214 2.90732 14.1696 2.72224C14.5373 2.52687 14.9723 2.49644 15.3629 2.63855C15.7534 2.78066 16.0669 3.08367 16.2229 3.46972C16.3708 3.83518 16.7486 4.05338 17.1391 3.99855C17.5514 3.94081 17.9705 4.06076 18.289 4.32797C18.6072 4.59519 18.7983 4.98705 18.8129 5.40309C18.827 5.79741 19.1072 6.13132 19.493 6.21345C19.9001 6.30006 20.253 6.5563 20.4607 6.91617C20.6686 7.27625 20.714 7.70974 20.5856 8.10586C20.4638 8.48094 20.6129 8.89071 20.9472 9.09973C21.3004 9.32062 21.5443 9.68205 21.6164 10.0911C21.6887 10.5005 21.583 10.9234 21.3268 11.2517C21.084 11.5626 21.084 11.9986 21.3266 12.3094ZM17.3287 23.8682C16.9404 23.7802 16.5425 23.9702 16.367 24.3277L15.1364 26.8355L13.2894 22.9703C13.5204 22.8714 13.7397 22.7456 13.9422 22.5946C14.5952 22.7906 15.3011 22.7741 15.9508 22.5377C16.6002 22.3014 17.1514 21.8601 17.5258 21.2903C17.8376 21.2724 18.144 21.2082 18.4358 21.1021L20.0529 24.4861L17.3287 23.8682ZM7.7037 24.3277C7.55689 24.0289 7.25454 23.8469 6.9325 23.8469C6.86939 23.8469 6.80561 23.8539 6.74205 23.8682L4.01779 24.4859L5.63493 21.1019C5.92676 21.2082 6.23336 21.2722 6.54488 21.2903C6.91929 21.8601 7.4705 22.3012 8.11995 22.5375C8.76963 22.7741 9.47548 22.7904 10.1285 22.5946C10.3311 22.7454 10.5504 22.8714 10.7813 22.9701L8.93434 26.8353L7.7037 24.3277Z" fill="#7B8E98"/>
</svg>
