<svg width="28" height="22" viewBox="0 0 28 22" fill="none" xmlns="http://www.w3.org/2000/svg">
<path fill-rule="evenodd" clip-rule="evenodd" d="M27.1628 10.3525L23.0938 4.09721C22.9013 3.80125 22.5738 3.62298 22.2227 3.62298H17.1608V1.38288C17.1608 0.803034 16.6945 0.333008 16.1192 0.333008H1.70829C1.13298 0.333008 0.666626 0.803034 0.666626 1.38288V18.5167C0.666626 19.0966 1.13298 19.5666 1.70829 19.5666H5.01246C5.44246 20.7885 6.60032 21.6663 7.95829 21.6663C9.31626 21.6663 10.4741 20.7885 10.9041 19.5666H18.2597C18.6897 20.7885 19.8476 21.6663 21.2055 21.6663C22.5635 21.6663 23.7213 20.7885 24.1514 19.5666H26.2916C26.8669 19.5666 27.3333 19.0966 27.3333 18.5167V10.9281C27.3333 10.7236 27.274 10.5235 27.1628 10.3525ZM7.95833 19.5672C7.38396 19.5672 6.91667 19.0962 6.91667 18.5173C6.91667 17.9384 7.38396 17.4674 7.95833 17.4674C8.53271 17.4674 9 17.9384 9 18.5173C9 19.0962 8.53271 19.5672 7.95833 19.5672ZM15.0776 17.4677H10.9041C10.4741 16.2458 9.31625 15.368 7.95828 15.368C6.60031 15.368 5.4425 16.2458 5.01245 17.4677H2.75V2.43359H15.0776V17.4677ZM21.2056 19.5672C20.6312 19.5672 20.1639 19.0962 20.1639 18.5173C20.1639 17.9384 20.6312 17.4674 21.2056 17.4674C21.7799 17.4674 22.2472 17.9384 22.2472 18.5173C22.2472 19.0962 21.7799 19.5672 21.2056 19.5672ZM25.25 17.4668H24.1513C23.7213 16.2449 22.5635 15.3671 21.2055 15.3671C19.8475 15.3671 18.6897 16.2449 18.2597 17.4668H17.1608V5.72266H21.66L25.25 11.2416V17.4668Z" fill="#7B8E98"/>
</svg>
